<svg id="Ebene_1" data-name="Ebene 1" xmlns="http://www.w3.org/2000/svg" xmlns:xlink="http://www.w3.org/1999/xlink" viewBox="0 0 1920 1080"><defs><style>.cls-1{fill:none;}.cls-2{clip-path:url(#clip-path);}.cls-3{fill:#25b1d8;}.cls-4{fill:#10587e;}.cls-5{fill:#177098;}.cls-6{fill:#22a2c8;}.cls-7{fill:#1b8aaf;}.cls-8{fill:#27bbe3;}.cls-9{fill:#14638a;}.cls-10{fill:#0c466c;}.cls-11{fill:#1c85ac;}</style><clipPath id="clip-path"><rect class="cls-1" width="1920" height="1080"/></clipPath></defs><g class="cls-2"><polygon class="cls-3" points="1041.895 -25.5 1199.27 497.67 1369.69 463.6 1252.79 683.92 1920 863.97 1940.5 -17.75 1041.895 -25.5"/><polygon class="cls-4" points="1070.447 0 1218 479 1400 438 1284.48 669.07 1951.298 855.36 1951.298 1113.25 191.128 1096.75 967.5 -17.75 1070.447 0"/><polygon class="cls-5" points="867.654 -17.75 0 669.07 0 1080 229.21 1080 961.22 0 867.654 -17.75"/><polygon class="cls-6" points="-20.75 714.785 936.57 -35.5 18.77 0 78.61 163.35 0 105.85 -20.75 714.785"/><polygon class="cls-5" points="1920 863.97 1920 1080 1366.59 1080 1252.79 683.92 1920 863.97"/><polygon class="cls-7" points="1920 353.59 1920 863.97 1252.79 683.92 1369.69 463.6 1612.25 415.11 1920 353.59"/><polygon class="cls-8" points="1920 0 1920 353.59 1612.25 415.11 1508.93 201.16 1615.66 0 1920 0"/><polygon class="cls-6" points="1615.66 0 1508.93 201.16 1369.69 463.6 1199.27 497.67 1056.29 0 1615.66 0"/><polygon class="cls-3" points="1508.93 201.16 1612.25 415.11 1369.69 463.6 1508.93 201.16"/><polygon class="cls-9" points="1369.69 463.6 1252.79 683.92 1199.27 497.67 1369.69 463.6"/><polygon class="cls-4" points="1252.79 683.92 1366.59 1080 1024.72 1080 1002.02 537.1 1199.27 497.67 1252.79 683.92"/><polygon class="cls-5" points="1056.29 0 1199.27 497.67 1002.02 537.1 979.57 0 1056.29 0"/><polygon class="cls-10" points="1002.02 537.1 1024.72 1080 936.57 1080 533.73 630.72 1002.02 537.1"/><polygon class="cls-4" points="979.57 0 1002.02 537.1 533.73 630.72 961.22 0 979.57 0"/><polygon class="cls-5" points="961.22 0 533.73 630.72 533.72 630.72 0 737.41 0 669.07 204.55 507.15 369.81 376.34 845.23 0 961.22 0"/><polygon class="cls-4" points="533.73 630.72 936.57 1080 229.21 1080 533.72 630.72 533.73 630.72"/><polygon class="cls-11" points="845.23 0 369.81 376.34 78.61 163.35 18.77 0 845.23 0"/><polygon class="cls-7" points="533.72 630.72 229.21 1080 0 1080 0 737.41 533.72 630.72"/><polygon class="cls-6" points="369.81 376.34 204.55 507.15 78.61 163.35 369.81 376.34"/><polygon class="cls-8" points="78.61 163.35 204.55 507.15 0 669.07 0 105.85 78.61 163.35"/><polygon class="cls-5" points="18.77 0 78.61 163.35 0 105.85 0 0 18.77 0"/></g></svg>