<?xml version="1.0" standalone="no"?>
<!DOCTYPE svg PUBLIC "-//W3C//DTD SVG 20010904//EN"
 "http://www.w3.org/TR/2001/REC-SVG-20010904/DTD/svg10.dtd">
<svg version="1.0" xmlns="http://www.w3.org/2000/svg"
 width="325.000000pt" height="325.000000pt" viewBox="0 0 325.000000 325.000000"
 preserveAspectRatio="xMidYMid meet">
<metadata>
Created by potrace 1.11, written by Peter Selinger 2001-2013
</metadata>
<g transform="translate(0.000000,325.000000) scale(0.100000,-0.100000)"
fill="#000000" stroke="none">
<path d="M1322 2434 l0 -797 -250 -251 -251 -251 0 -567 -1 -568 50 0 c33 0
50 4 51 13 0 6 1 253 1 546 l1 535 448 448 c246 246 450 448 451 448 2 0 3
-448 2 -996 -3 -918 -1 -994 14 -982 9 7 144 141 301 298 l284 284 0 773 0
773 -545 545 c-300 300 -548 545 -551 545 -3 0 -5 -358 -5 -796z m574 87 c399
-399 424 -426 425 -460 0 -20 0 -348 0 -730 l1 -694 -199 -199 -200 -199 2
995 c1 548 -1 996 -4 996 -3 0 -117 -111 -252 -246 l-246 -246 0 626 0 627 25
-23 c13 -13 215 -214 448 -447z"/>
</g>
</svg>
